<svg id="Layer_1" enable-background="new 0 0 512.526 512.526" height="512" viewBox="0 0 512.526 512.526" width="512" xmlns="http://www.w3.org/2000/svg"><g><g><g id="XMLID_5515_"><g id="XMLID_5516_"><path d="m219.551 11.468c-8.68-5.94-20.53-3.719-26.469 4.961l-45.145 65.968-14.886 11.888-2.956 31.473 27.83-2.598 16.003-12.78c1.474-1.178 2.766-2.568 3.832-4.125l46.752-68.318c5.939-8.679 3.718-20.53-4.961-26.469z" fill="#ffb69e"/></g></g><g id="XMLID_5533_"><g id="XMLID_5538_"><path d="m99.223 504.065c-12.347-2.612-20.239-14.739-17.627-27.086l20.815-98.391-20.47-73.39c-3.39-12.156 3.716-24.759 15.872-28.15 12.156-3.388 24.759 3.717 28.15 15.872l21.973 78.782c.988 3.542 1.106 7.271.345 10.869l-21.973 103.867c-2.607 12.325-14.713 20.241-27.085 17.627z" fill="#ffb69e"/></g><g id="XMLID_5537_"><path d="m48.385 504.559c-12.62 0-22.851-10.23-22.851-22.851v-182.65c0-12.62 10.23-22.851 22.851-22.851s22.851 10.23 22.851 22.851v182.65c0 12.621-10.23 22.851-22.851 22.851z" fill="#ffb69e"/></g></g><ellipse cx="76.169" cy="64.525" fill="#ffb69e" rx="39.466" ry="39.466" transform="matrix(.987 -.16 .16 .987 -9.352 13.034)"/><path d="m123.409 150.724 34.515-27.565-24.874-28.875-29.149 23.279h-53.715c-9.199 0-17.035 6.685-18.484 15.77l-31.57 197.988c-.97 6.086 3.502 12.258 10.627 12.258h131.001c6.114 0 11.542-5.383 10.417-12.443z" fill="#ff6473"/><g id="XMLID_5517_"><g id="XMLID_5518_"><path d="m204.7 175.136-76.457-1.905-20.444-18.059-26.646-3.077 2.409 32.483 24.682 21.802c3.367 2.974 7.677 4.662 12.168 4.765l83.412 2.065c.15.004.298.005.446.005 10.313 0 18.791-8.24 19.029-18.604.242-10.514-8.085-19.233-18.599-19.475z" fill="#ffb69e"/></g></g><g id="XMLID_707_"><g id="XMLID_708_"><path d="m107.799 155.172-30.932-27.323c-7.882-6.962-19.916-6.216-26.878 1.665-6.962 7.883-6.217 19.916 1.665 26.879l31.908 28.185z" fill="#fa5565"/></g></g></g><g><g><path d="m439.876 492.475-51.368-93.414c-2.008-3.652-3.001-7.775-2.876-11.94l2.361-78.299 25.39-14.718 21.658 14.718-2.597 73.342 48.3 87.837c6.207 11.286 2.088 25.466-9.198 31.673-11.287 6.206-25.465 2.086-31.67-9.199z" fill="#414b82"/></g><g><path d="m286.076 484.253-13.905-106.665c-.757-5.81.7-11.692 4.082-16.477l61.116-86.454c7.435-10.517 21.989-13.016 32.506-5.581s13.016 21.988 5.581 32.506l-55.856 79.013 12.727 97.628c1.665 12.772-7.339 24.475-20.111 26.14-12.738 1.66-24.47-7.302-26.14-20.11z" fill="#5f6e9b"/></g><path d="m322.086 131.319-3.157-21.835-15.816-11.185-21.838-76.249c-2.956-10.318-13.713-16.286-24.034-13.332-10.318 2.956-16.287 13.716-13.332 24.034l23.72 82.819c1.218 4.253 3.85 7.962 7.462 10.516l21.138 14.985z" fill="#ffb69e"/><path d="m397.931 143.618-.338-1.606h-32.669l-.314 3.623c-.855 9.857 6.916 18.332 16.81 18.332 10.717 0 18.719-9.861 16.511-20.349z" fill="#ffb69e"/><g><path d="m432.004 149.777c-7.246-5.055-15.867-7.765-24.702-7.765h-9.709c.396 8.988-7.944 16.641-16.65 16.641-9.335 0-15.614-7.62-16.018-16.641-.007-.146-45.996-32.529-45.996-32.529l-22.701 31.588 35.875 25.431c-.063.632-.037 71.393-.016 112.887.008 16.26 13.192 29.433 29.452 29.433h73.504v-109.665l21.399 14.99 18.569-11.303 3.22-20.816z" fill="#64afff"/></g><g fill="#ffb69e"><circle cx="383.361" cy="89.673" r="40.278"/><path d="m504.265 200.19-26.035-18.163-21.79 32.119 8.175 5.726-33.29 39.761c-6.89 8.23-5.805 20.487 2.425 27.377 8.232 6.892 20.488 5.803 27.377-2.425 9.439-11.274 37.721-45.053 46.888-56.002 7.217-8.614 5.634-21.819-3.75-28.393z"/></g></g></g></svg>