<svg id="Layer_1" enable-background="new 0 0 511.555 511.555" height="512" viewBox="0 0 511.555 511.555" width="512" xmlns="http://www.w3.org/2000/svg"><g><g><g><path d="m212.161 125.347-24.117 4.834-82.562-15.422c-8.959-1.673-17.584 4.234-19.258 13.196s4.234 17.584 13.196 19.258l85.704 16.009c1.002.187 2.017.281 3.031.281 1.087 0 2.174-.108 3.245-.322l23.199-4.65 6.852-19.541z" fill="#b05733"/></g><g><path d="m276.8 129.226c-1.792-8.939-10.489-14.733-19.431-12.941l-45.208 9.062 3.423 32.987 48.275-9.677c8.939-1.793 14.733-10.492 12.941-19.431z" fill="#ffda52"/></g><path d="m47.932 123.531 32.652-8.396c5.808 9.325 1.445 21.63-8.94 25.212l-.994.343c-10.913 3.765-22.345-4.141-22.675-15.68z" fill="#ffa385"/><g><path d="m147.748 91.835c-9.117 0-16.508 7.391-16.508 16.508v37.625l-3.857-5.667-17.758 31.92c0 .215-.02.416-.031.624l24.505 36.012c4.069 5.979 11.567 8.626 18.507 6.49 6.924-2.133 11.649-8.531 11.649-15.777v-91.227c.001-9.117-7.39-16.508-16.507-16.508z" fill="#ffb69e"/></g><g><path d="m114.868 121.908c-5.13-7.538-15.398-9.49-22.935-4.361-7.538 5.129-9.49 15.397-4.361 22.935l27.005 39.685 16.974-17.288-.311-16.911z" fill="#64afff"/></g><g><path d="m194.493 473.143c-10.813-1.663-18.231-11.777-16.567-22.59l16.582-107.812c.094-.616.219-1.227.371-1.831l22.583-89.578c2.675-10.609 13.441-17.042 24.051-14.366 10.608 2.674 17.04 13.442 14.366 24.051l-22.354 88.672-16.44 106.887c-1.665 10.814-11.779 18.23-22.592 16.567z" fill="#748488"/></g><g><path d="m308.391 473.377c-8.345.001-16.106-5.313-18.831-13.678l-31.585-96.938c-.765-2.346-1.084-4.815-.942-7.279l5.598-96.939c.63-10.923 10.005-19.272 20.918-18.634 10.922.631 19.265 9.996 18.634 20.918l-5.383 93.21 30.428 93.388c3.389 10.402-2.296 21.582-12.698 24.971-2.036.665-4.106.981-6.139.981z" fill="#55696e"/></g><path d="m314.411 124.791-35.025-8.367c-13.874-3.724-28.447 5.651-32.551 20.939l-34.674 132.161 88.3 22.666 34.678-131.653c4.107-15.59-5.158-31.567-20.728-35.746z" fill="#ffda52"/><ellipse cx="277.363" cy="93.741" fill="#ba6746" rx="34.213" ry="34.213" transform="matrix(.942 -.335 .335 .942 -15.378 98.253)"/><g><path d="m145.089 473.377c-.167 0-.332-.002-.5-.006-10.937-.271-19.584-9.356-19.313-20.293l2.601-105.105-21.92-86.952 42.625 7.009 18.374 72.884c.439 1.742.64 3.536.595 5.333l-2.668 107.812c-.266 10.768-9.082 19.317-19.794 19.318z" fill="#414b82"/></g><g><path d="m47.302 472.397c-10.402-3.389-16.087-14.569-12.698-24.971l30.428-93.388-5.383-93.21c-.631-10.922 7.712-20.288 18.634-20.918 10.924-.63 20.288 7.712 20.918 18.634l5.598 96.939c.142 2.464-.177 4.932-.942 7.279l-31.585 96.938c-3.377 10.368-14.538 16.097-24.97 12.697z" fill="#5f6e9b"/></g><g><path d="m113.074 136.088c-4.097-15.266-18.635-24.634-32.491-20.953.371 1.342.614 2.736.678 4.171.412 9.187-8.113 17.012-17.012 17.012-8.032 0-14.291-5.536-16.318-12.787l-19.313 4.967-6.626 5.603 39.395 156.814 87.195-22.885z" fill="#64afff"/></g><g><path d="m40.047 185.052 8.592-36.769c2.074-8.878-3.441-17.757-12.319-19.831-8.88-2.076-17.757 3.441-19.831 12.318l-10.347 44.282 17.2 3.247z" fill="#64afff"/></g><path d="m100.352 184.904c-2.914-8.639-12.28-13.279-20.918-10.365l-40.09 13.524.704-3.011h-33.906l-5.696 24.375c-2.932 12.542 9.074 23.541 21.351 19.398l68.19-23.003c8.639-2.914 13.28-12.28 10.365-20.918z" fill="#ffb69e"/><ellipse cx="81.002" cy="90.542" fill="#ffb69e" rx="34.213" ry="34.213" transform="matrix(.5 -.866 .866 .5 -37.9 115.471)"/><g><path d="m251.684 136.778-26.727 5.707-77.341-11.81c-9.003-1.379-17.434 4.814-18.81 13.826-1.377 9.013 4.814 17.435 13.827 18.811l80.326 12.266c1.97.301 3.983.243 5.939-.175l29.017-6.197 2-18.356z" fill="#ba6746"/></g><g><path d="m318.14 139.466c-1.904-8.916-10.677-14.601-19.591-12.696l-46.864 10.008 6.232 32.429 47.528-10.149c8.914-1.904 14.599-10.675 12.695-19.592z" fill="#f2c41b"/></g></g><g><g><path d="m433.594 143.479-55.22-34.063-17.666-50.914-19.66-1.682c-1.791 3.868-12.323 13.568-12.323 13.568l19.413 55.948c1.287 3.71 3.816 6.863 7.16 8.925l60.388 37.25c2.791 1.722 5.883 2.542 8.937 2.542 5.72 0 11.309-2.878 14.532-8.104 4.947-8.017 2.457-18.525-5.561-23.47z" fill="#004470"/></g><g><path d="m471.253 457.971-23.14-90.58c-.594-2.325-.775-4.738-.533-7.126l7.826-77.363c1.138-11.246 11.173-19.448 22.423-18.303 11.246 1.138 18.635 20.9 18.635 20.9l-7.793 75.275 22.242 87.064c2.798 10.952-3.812 22.098-14.764 24.896-10.979 2.807-22.106-3.838-24.896-14.763z" fill="#292c2d"/></g><g><path d="m391.899 473.294c-11.261-.983-19.592-10.908-18.609-22.169l8.806-100.888c.141-1.615.473-3.207.99-4.744l26.993-80.272c3.602-10.713 15.2-16.48 25.923-12.876 10.713 3.603 16.478 15.209 12.876 25.923l-26.216 77.959-8.594 98.457c-.981 11.224-10.871 19.595-22.169 18.61z" fill="#1b1d1e"/></g><path d="m487.821 156.232c-.93-13.915-12.965-24.441-26.88-23.51l-44.93 3.004c-13.915.93-24.441 12.965-23.51 26.88l8.643 129.268 95.32-6.373z" fill="#004470"/><ellipse cx="430.056" cy="84.902" fill="#ffb69e" rx="37.38" ry="37.38" transform="matrix(.248 -.969 .969 .248 241.25 480.514)"/><g><path d="m472.628 157.995c-3.662-8.677-13.663-12.746-22.344-9.083l-59.777 25.224-51.555-15.093s-15.088 11.698-18.684 13.341l9.521 19.52 56.963 16.676c1.567.459 3.18.687 4.791.687 2.261 0 4.517-.45 6.63-1.342l65.371-27.585c8.679-3.662 12.746-13.666 9.084-22.345z" fill="#00558c"/></g><g><path d="m338.951 50.418-13.542 10.409 3.317 9.561 31.983-11.886-3.073-8.857z" fill="#fff"/></g><g><path d="m357.636 49.645c-3.088-8.9-12.806-13.607-21.705-10.522-8.899 3.088-13.61 12.805-10.522 21.705z" fill="#ffb69e"/></g><g><path d="m329.787 156.361-11.86 12.907 2.277 19.83 9.583 2.806 9.164-32.861z" fill="#fff"/></g><g><path d="m329.787 156.361c-9.035-2.646-18.513 2.537-21.16 11.577-2.646 9.04 2.537 18.514 11.577 21.161z" fill="#ffb69e"/></g></g></g></svg>