<svg id="Layer_1" enable-background="new 0 0 512 512" height="512" viewBox="0 0 512 512" width="512" xmlns="http://www.w3.org/2000/svg"><g><path d="m143.533 463.8h-64.266c-8.284 0-15-6.716-15-15v-128.533c0-8.284 6.716-15 15-15h64.267c8.284 0 15 6.716 15 15v128.533c-.001 8.284-6.717 15-15.001 15z" fill="#1e354b"/><path d="m79.267 319.2h-64.267c-8.284 0-15-6.716-15-15v-128.533c0-8.284 6.716-15 15-15h64.267c8.284 0 15 6.716 15 15v128.533c0 8.284-6.716 15-15 15z" fill="#ff3d7d"/><path d="m15 319.2h64.267c8.284 0 15-6.716 15-15v-64.283h-94.267v64.283c0 8.284 6.716 15 15 15z" fill="#c1126b"/><path d="m352.416 319.2c-8.284 0-15.016-6.716-15.016-15v-128.533c0-8.284 6.716-15 15-15 43.715 0 79.267 35.552 79.267 79.251 0 43.73-35.552 79.282-79.251 79.282z" fill="#f0e6e6"/><path d="m352.416 319.2c43.699 0 79.251-35.552 79.251-79.283h-94.267v64.283c0 8.284 6.732 15 15.016 15z" fill="#d2cbd7"/><path d="m281.426 405.983-141.434-70.717h-60.725c-8.284 0-15-6.716-15-15v-160.666c0-8.284 6.716-15 15-15h60.726l141.434-70.717c4.648-2.326 10.172-2.076 14.594.657 4.423 2.733 7.114 7.561 7.114 12.76v305.267c0 5.199-2.691 10.027-7.114 12.76-4.419 2.73-9.942 2.983-14.595.656z" fill="#ff6b6b"/><g fill="#4793ff"><path d="m497 254.933h-16.066c-8.284 0-15-6.716-15-15s6.716-15 15-15h16.066c8.284 0 15 6.716 15 15s-6.716 15-15 15z"/><path d="m432.684 159.654c-5.858-5.857-5.859-15.355-.002-21.213l11.359-11.361c5.857-5.858 15.355-5.859 21.213-.002s5.859 15.355.002 21.213l-11.359 11.361c-5.859 5.859-15.357 5.858-21.213.002z"/><path d="m444.041 352.787-11.359-11.361c-5.857-5.858-5.856-15.356.002-21.213s15.354-5.856 21.213.001l11.359 11.361c5.857 5.858 5.856 15.356-.002 21.213-5.849 5.848-15.345 5.866-21.213-.001z"/></g><path d="m79.267 335.267h60.726l141.434 70.717c4.653 2.327 10.177 2.074 14.594-.657 4.423-2.733 7.114-7.561 7.114-12.76v-152.65h-238.868v80.349c0 8.285 6.715 15.001 15 15.001z" fill="#ff3d7d"/><path d="m352.4 431.667h-64.267c-8.284 0-15-6.716-15-15v-353.467c0-8.284 6.716-15 15-15h64.267c8.284 0 15 6.716 15 15v353.466c0 8.285-6.715 15.001-15 15.001z" fill="#fff7f4"/><path d="m288.134 431.667h64.266c8.284 0 15-6.716 15-15v-176.75h-94.267v176.749c.001 8.285 6.717 15.001 15.001 15.001z" fill="#f0e6e6"/></g></svg>