<svg id="Capa_1" enable-background="new 0 0 512 512" height="512" viewBox="0 0 512 512" width="512" xmlns="http://www.w3.org/2000/svg"><g><g><path d="m395.553 503.088-22.874 8.326c-5.021 1.828-10.573-.761-12.401-5.783l-163.965-450.489c-1.828-5.021.761-10.573 5.783-12.401l22.874-8.326c5.021-1.828 10.573.761 12.401 5.783l163.964 450.489c1.829 5.022-.76 10.574-5.782 12.401z" fill="#ba5d4f"/><path d="m224.975 34.417-22.429 8.164c5.019-1.827 10.571.755 12.401 5.783l62.89 172.79-18.632 6.781 14.152 38.881 7.859-2.861c5.949-2.165 12.528.902 14.693 6.852l83.002 228.046c1.827 5.019-.764 10.574-5.783 12.401l22.429-8.164c5.021-1.828 7.61-7.38 5.783-12.401l-163.964-450.489c-1.83-5.028-7.382-7.609-12.401-5.783z" fill="#a34f41"/></g><g><path d="m85.671 116.887 59.967 164.756-38.034 13.846c-7.531 2.74-15.865-1.144-18.605-8.674l-50.036-137.478c-2.74-7.531 1.143-15.865 8.674-18.605z" fill="#fb4a59"/><path d="m464.363 165.635-49.933 18.172-59.966-164.756 49.933-18.172c7.531-2.74 15.865 1.143 18.605 8.674l50.036 137.477c2.74 7.53-1.144 15.864-8.675 18.605z" fill="#fb4a59"/><path d="m98.43 62.784h302.726v175.316h-302.726z" fill="#64b9fc" transform="matrix(.94 -.342 .342 .94 -36.39 94.507)"/><path d="m359.788 16.7h33.243v175.316h-33.243z" fill="#31a7fb" transform="matrix(.94 -.342 .342 .94 -12.992 135.033)"/><path d="m422.999 9.561 50.034 137.468c2.743 7.537-1.137 15.858-8.674 18.601l-36.904 13.432c7.537-2.743 11.417-11.064 8.674-18.601l-50.034-137.468c-2.743-7.537-11.064-11.417-18.601-8.674l36.904-13.432c7.537-2.743 15.858 1.137 18.601 8.674z" fill="#f82f40"/><g fill="#f5f7f8"><path d="m176.235 139.026c-.543-4.232-4.413-7.222-8.647-6.68-4.233.543-7.223 4.414-6.68 8.647l5.763 44.899-24.446-38.098c-2.305-3.591-7.084-4.634-10.675-2.33-3.592 2.305-4.635 7.084-2.33 10.675l42.982 66.986c1.454 2.265 3.932 3.555 6.505 3.555.881-.001 1.774-.152 2.64-.467 3.396-1.236 5.481-4.66 5.021-8.244z"/><path d="m227.423 123.156c-1.324-3.639-3.987-6.545-7.497-8.182-3.509-1.636-7.447-1.808-11.087-.484l-15.027 5.47c-3.639 1.324-6.545 3.987-8.182 7.497s-1.809 7.447-.484 11.086l22.773 62.568c2.141 5.881 7.715 9.541 13.64 9.541 1.643 0 3.313-.281 4.944-.875l15.027-5.47c3.639-1.324 6.545-3.987 8.182-7.497s1.809-7.447.484-11.086zm-5.31 71.774-22.121-60.776 13.235-4.817 22.121 60.776z"/><path d="m334.049 154.188-17.006 6.19-8.418-23.127 11.389-4.145c4.009-1.459 6.076-5.893 4.618-9.903-1.459-4.009-5.89-6.079-9.903-4.618l-11.389 4.145-8.418-23.127 17.007-6.19c4.009-1.46 6.077-5.893 4.618-9.903-1.46-4.009-5.893-6.077-9.903-4.618l-17.901 6.516c-3.64 1.324-6.545 3.987-8.182 7.497-1.638 3.511-1.81 7.448-.485 11.086l22.772 62.569c2.142 5.881 7.715 9.54 13.64 9.54 1.643 0 3.314-.281 4.945-.875l17.902-6.516c4.01-1.46 6.077-5.893 4.618-9.903-1.461-4.01-5.895-6.078-9.904-4.618z"/><path d="m261.682 111.701 6.618-2.409c4.009-1.46 6.077-5.893 4.618-9.903-1.459-4.009-5.89-6.081-9.903-4.618l-27.755 10.102c-4.01 1.46-6.077 5.893-4.618 9.903 1.142 3.138 4.105 5.086 7.261 5.086.877 0 1.77-.15 2.642-.468l6.617-2.408 24.763 68.035c1.142 3.138 4.105 5.086 7.262 5.086.877 0 1.77-.15 2.642-.468 4.009-1.46 6.077-5.893 4.618-9.903z"/><path d="m361.18 119.14-16.673-45.807c-1.459-4.01-5.892-6.078-9.903-4.618-4.01 1.46-6.077 5.893-4.618 9.903l16.673 45.807c1.142 3.137 4.105 5.085 7.262 5.085.877 0 1.77-.15 2.642-.468 4.01-1.459 6.077-5.892 4.617-9.902z"/><path d="m371.994 148.663c-1.43-4.021-5.851-6.122-9.868-4.693l-.122.043c-4.02 1.429-6.122 5.847-4.693 9.867 1.126 3.165 4.103 5.141 7.281 5.141.859 0 1.732-.144 2.588-.448l.122-.043c4.019-1.429 6.121-5.847 4.692-9.867z"/></g></g></g></svg>